<svg width="287" height="208" viewBox="0 0 287 208" fill="none" xmlns="http://www.w3.org/2000/svg">
<mask id="path-1-outside-1_18_139" maskUnits="userSpaceOnUse" x="16.1288" y="83.6084" width="50.347" height="50.8687" fill="black">
<rect fill="white" x="16.1288" y="83.6084" width="50.347" height="50.8687"/>
<path d="M54.6925 107.799L49.4993 119.826L54.3589 124.211L50.8109 132.428L23.6213 106.854L27.5458 97.7654L64.8046 100.02L61.217 108.329L54.6925 107.799ZM47.7611 107.202L34.2395 106.102L44.332 115.144L47.7611 107.202Z"/>
</mask>
<path d="M54.6925 107.799L49.4993 119.826L54.3589 124.211L50.8109 132.428L23.6213 106.854L27.5458 97.7654L64.8046 100.02L61.217 108.329L54.6925 107.799ZM47.7611 107.202L34.2395 106.102L44.332 115.144L47.7611 107.202Z" fill="#2A5D18"/>
<path d="M54.6925 107.799L54.7734 106.802L54.0587 106.744L53.7744 107.403L54.6925 107.799ZM49.4993 119.826L48.5813 119.429L48.297 120.088L48.8294 120.568L49.4993 119.826ZM54.3589 124.211L55.277 124.608L55.5612 123.949L55.0289 123.469L54.3589 124.211ZM50.8109 132.428L50.1258 133.157L51.164 134.133L51.729 132.825L50.8109 132.428ZM23.6213 106.854L22.7032 106.458L22.425 107.102L22.9361 107.583L23.6213 106.854ZM27.5458 97.7654L27.6062 96.7672L26.9059 96.7248L26.6278 97.3689L27.5458 97.7654ZM64.8046 100.02L65.7227 100.417L66.2877 99.1082L64.865 99.0221L64.8046 100.02ZM61.217 108.329L61.136 109.326L61.8508 109.384L62.135 108.725L61.217 108.329ZM47.7611 107.202L48.6792 107.599L49.2319 106.319L47.8422 106.206L47.7611 107.202ZM34.2395 106.102L34.3206 105.105L31.3593 104.864L33.5722 106.847L34.2395 106.102ZM44.332 115.144L43.6648 115.888L44.6994 116.815L45.2501 115.54L44.332 115.144ZM53.7744 107.403L48.5813 119.429L50.4174 120.222L55.6105 108.195L53.7744 107.403ZM48.8294 120.568L53.6889 124.954L55.0289 123.469L50.1693 119.083L48.8294 120.568ZM53.4408 123.815L49.8928 132.032L51.729 132.825L55.277 124.608L53.4408 123.815ZM51.496 131.7L24.3064 106.126L22.9361 107.583L50.1258 133.157L51.496 131.7ZM24.5393 107.251L28.4639 98.1618L26.6278 97.3689L22.7032 106.458L24.5393 107.251ZM27.4854 98.7635L64.7442 101.018L64.865 99.0221L27.6062 96.7672L27.4854 98.7635ZM63.8865 99.6239L60.2989 107.932L62.135 108.725L65.7227 100.417L63.8865 99.6239ZM61.2979 107.332L54.7734 106.802L54.6115 108.796L61.136 109.326L61.2979 107.332ZM47.8422 106.206L34.3206 105.105L34.1584 107.099L47.68 108.199L47.8422 106.206ZM33.5722 106.847L43.6648 115.888L44.9993 114.399L34.9067 105.357L33.5722 106.847ZM45.2501 115.54L48.6792 107.599L46.843 106.806L43.414 114.747L45.2501 115.54Z" fill="#2A5D18" mask="url(#path-1-outside-1_18_139)"/>
<mask id="path-3-outside-2_18_139" maskUnits="userSpaceOnUse" x="58.2739" y="147.151" width="25.5759" height="38.3764" fill="black">
<rect fill="white" x="58.2739" y="147.151" width="25.5759" height="38.3764"/>
<path d="M82.2501 149.067L82.3544 155.916L68.0561 156.134L68.1688 163.533L78.8675 163.37L78.9688 170.019L68.2701 170.182L68.4863 184.381L59.9373 184.511L59.4027 149.415L82.2501 149.067Z"/>
</mask>
<path d="M82.2501 149.067L82.3544 155.916L68.0561 156.134L68.1688 163.533L78.8675 163.37L78.9688 170.019L68.2701 170.182L68.4863 184.381L59.9373 184.511L59.4027 149.415L82.2501 149.067Z" fill="#2A5D18"/>
<path d="M82.2501 149.067L83.25 149.052L83.2347 148.052L82.2349 148.067L82.2501 149.067ZM82.3544 155.916L82.3696 156.916L83.3695 156.901L83.3543 155.901L82.3544 155.916ZM68.0561 156.134L68.0408 155.134L67.041 155.149L67.0562 156.149L68.0561 156.134ZM68.1688 163.533L67.1689 163.548L67.1841 164.548L68.184 164.533L68.1688 163.533ZM78.8675 163.37L79.8674 163.355L79.8522 162.355L78.8523 162.37L78.8675 163.37ZM78.9688 170.019L78.984 171.019L79.9839 171.004L79.9687 170.004L78.9688 170.019ZM68.2701 170.182L68.2548 169.182L67.2549 169.198L67.2702 170.198L68.2701 170.182ZM68.4863 184.381L68.5016 185.381L69.5014 185.365L69.4862 184.365L68.4863 184.381ZM59.9373 184.511L58.9374 184.526L58.9527 185.526L59.9526 185.511L59.9373 184.511ZM59.4027 149.415L59.3875 148.415L58.3876 148.43L58.4028 149.43L59.4027 149.415ZM81.2502 149.082L81.3545 155.931L83.3543 155.901L83.25 149.052L81.2502 149.082ZM82.3392 154.916L68.0408 155.134L68.0713 157.134L82.3696 156.916L82.3392 154.916ZM67.0562 156.149L67.1689 163.548L69.1687 163.518L69.056 156.119L67.0562 156.149ZM68.184 164.533L78.8828 164.37L78.8523 162.37L68.1535 162.533L68.184 164.533ZM77.8677 163.385L77.9689 170.035L79.9687 170.004L79.8674 163.355L77.8677 163.385ZM78.9536 169.019L68.2548 169.182L68.2853 171.182L78.984 171.019L78.9536 169.019ZM67.2702 170.198L67.4864 184.396L69.4862 184.365L69.2699 170.167L67.2702 170.198ZM68.4711 183.381L59.9221 183.511L59.9526 185.511L68.5016 185.381L68.4711 183.381ZM60.9372 184.496L60.4026 149.4L58.4028 149.43L58.9374 184.526L60.9372 184.496ZM59.418 150.415L82.2653 150.067L82.2349 148.067L59.3875 148.415L59.418 150.415Z" fill="#2A5D18" mask="url(#path-3-outside-2_18_139)"/>
<mask id="path-5-outside-3_18_139" maskUnits="userSpaceOnUse" x="239.903" y="92.3949" width="40.8027" height="45.7368" fill="black">
<rect fill="white" x="239.903" y="92.3949" width="40.8027" height="45.7368"/>
<path d="M267.308 94.7309L269.555 101.202L260.769 104.252L270.033 130.94L261.956 133.744L252.692 107.056L243.906 110.106L241.66 103.634L267.308 94.7309Z"/>
</mask>
<path d="M267.308 94.7309L269.555 101.202L260.769 104.252L270.033 130.94L261.956 133.744L252.692 107.056L243.906 110.106L241.66 103.634L267.308 94.7309Z" fill="#2A5D18"/>
<path d="M267.308 94.7309L268.253 94.403L267.925 93.4583L266.98 93.7862L267.308 94.7309ZM269.555 101.202L269.883 102.147L270.827 101.819L270.499 100.874L269.555 101.202ZM260.769 104.252L260.441 103.307L259.496 103.635L259.824 104.58L260.769 104.252ZM270.033 130.94L270.361 131.884L271.306 131.556L270.978 130.612L270.033 130.94ZM261.956 133.744L261.011 134.072L261.339 135.016L262.284 134.688L261.956 133.744ZM252.692 107.056L253.636 106.728L253.308 105.783L252.364 106.111L252.692 107.056ZM243.906 110.106L242.961 110.434L243.289 111.378L244.234 111.05L243.906 110.106ZM241.66 103.634L241.332 102.69L240.387 103.018L240.715 103.962L241.66 103.634ZM266.364 95.0589L268.61 101.53L270.499 100.874L268.253 94.403L266.364 95.0589ZM269.227 100.257L260.441 103.307L261.097 105.197L269.883 102.147L269.227 100.257ZM259.824 104.58L269.089 131.268L270.978 130.612L261.714 103.924L259.824 104.58ZM269.705 129.995L261.628 132.799L262.284 134.688L270.361 131.884L269.705 129.995ZM262.901 133.416L253.636 106.728L251.747 107.384L261.011 134.072L262.901 133.416ZM252.364 106.111L243.578 109.161L244.234 111.05L253.02 108.001L252.364 106.111ZM244.851 109.778L242.604 103.307L240.715 103.962L242.961 110.434L244.851 109.778ZM241.988 104.579L267.636 95.6756L266.98 93.7862L241.332 102.69L241.988 104.579Z" fill="#2A5D18" mask="url(#path-5-outside-3_18_139)"/>
<mask id="path-7-outside-4_18_139" maskUnits="userSpaceOnUse" x="206.846" y="107.982" width="43.2412" height="47.7975" fill="black">
<rect fill="white" x="206.846" y="107.982" width="43.2412" height="47.7975"/>
<path d="M236.618 147.764C234.315 148.898 232.067 149.539 229.875 149.69C227.683 149.84 225.673 149.454 223.845 148.534C222.047 147.598 220.61 146.113 219.535 144.079L227.699 140.061C228.393 141.168 229.238 141.867 230.235 142.156C231.218 142.416 232.262 142.273 233.369 141.729C234.505 141.169 235.277 140.473 235.685 139.641C236.078 138.779 236.046 137.884 235.59 136.957C235.207 136.18 234.622 135.669 233.833 135.426C233.074 135.167 232.225 135.065 231.286 135.119C230.376 135.158 229.116 135.314 227.504 135.587C225.161 135.96 223.192 136.149 221.597 136.154C220.002 136.159 218.439 135.776 216.908 135.006C215.378 134.236 214.127 132.864 213.155 130.891C211.713 127.96 211.648 125.149 212.962 122.459C214.261 119.739 216.616 117.54 220.025 115.862C223.494 114.155 226.703 113.616 229.65 114.246C232.583 114.846 234.853 116.589 236.46 119.476L228.161 123.561C227.601 122.574 226.837 121.965 225.869 121.735C224.887 121.476 223.857 121.611 222.781 122.141C221.854 122.597 221.231 123.219 220.913 124.007C220.58 124.766 220.642 125.608 221.098 126.535C221.599 127.552 222.467 128.109 223.704 128.206C224.941 128.304 226.738 128.181 229.096 127.838C231.468 127.525 233.436 127.373 235.002 127.383C236.597 127.378 238.152 127.746 239.668 128.486C241.184 129.226 242.406 130.538 243.333 132.422C244.216 134.216 244.555 136.074 244.349 137.996C244.173 139.903 243.431 141.717 242.123 143.438C240.816 145.159 238.981 146.601 236.618 147.764Z"/>
</mask>
<path d="M236.618 147.764C234.315 148.898 232.067 149.539 229.875 149.69C227.683 149.84 225.673 149.454 223.845 148.534C222.047 147.598 220.61 146.113 219.535 144.079L227.699 140.061C228.393 141.168 229.238 141.867 230.235 142.156C231.218 142.416 232.262 142.273 233.369 141.729C234.505 141.169 235.277 140.473 235.685 139.641C236.078 138.779 236.046 137.884 235.59 136.957C235.207 136.18 234.622 135.669 233.833 135.426C233.074 135.167 232.225 135.065 231.286 135.119C230.376 135.158 229.116 135.314 227.504 135.587C225.161 135.96 223.192 136.149 221.597 136.154C220.002 136.159 218.439 135.776 216.908 135.006C215.378 134.236 214.127 132.864 213.155 130.891C211.713 127.96 211.648 125.149 212.962 122.459C214.261 119.739 216.616 117.54 220.025 115.862C223.494 114.155 226.703 113.616 229.65 114.246C232.583 114.846 234.853 116.589 236.46 119.476L228.161 123.561C227.601 122.574 226.837 121.965 225.869 121.735C224.887 121.476 223.857 121.611 222.781 122.141C221.854 122.597 221.231 123.219 220.913 124.007C220.58 124.766 220.642 125.608 221.098 126.535C221.599 127.552 222.467 128.109 223.704 128.206C224.941 128.304 226.738 128.181 229.096 127.838C231.468 127.525 233.436 127.373 235.002 127.383C236.597 127.378 238.152 127.746 239.668 128.486C241.184 129.226 242.406 130.538 243.333 132.422C244.216 134.216 244.555 136.074 244.349 137.996C244.173 139.903 243.431 141.717 242.123 143.438C240.816 145.159 238.981 146.601 236.618 147.764Z" fill="#2A5D18"/>
<path d="M229.875 149.69L229.943 150.687L229.943 150.687L229.875 149.69ZM223.845 148.534L223.383 149.421L223.395 149.427L223.845 148.534ZM219.535 144.079L219.093 143.182L218.17 143.636L218.651 144.546L219.535 144.079ZM227.699 140.061L228.547 139.53L228.068 138.765L227.258 139.163L227.699 140.061ZM230.235 142.156L229.957 143.116L229.968 143.12L229.98 143.123L230.235 142.156ZM235.685 139.641L236.583 140.081L236.589 140.069L236.595 140.056L235.685 139.641ZM233.833 135.426L233.511 136.372L233.524 136.377L233.538 136.381L233.833 135.426ZM231.286 135.119L231.329 136.118L231.336 136.118L231.343 136.117L231.286 135.119ZM227.504 135.587L227.661 136.575L227.671 136.573L227.504 135.587ZM221.597 136.154L221.6 137.154L221.597 136.154ZM216.908 135.006L217.358 134.113L217.358 134.113L216.908 135.006ZM212.962 122.459L213.861 122.898L213.865 122.89L212.962 122.459ZM229.65 114.246L229.442 115.224L229.45 115.225L229.65 114.246ZM236.46 119.476L236.902 120.374L237.845 119.909L237.334 118.99L236.46 119.476ZM228.161 123.561L227.291 124.054L227.756 124.875L228.602 124.458L228.161 123.561ZM225.869 121.735L225.614 122.702L225.626 122.705L225.638 122.708L225.869 121.735ZM220.913 124.007L221.829 124.409L221.835 124.395L221.84 124.382L220.913 124.007ZM223.704 128.206L223.783 127.21L223.783 127.21L223.704 128.206ZM229.096 127.838L228.965 126.846L228.952 126.848L229.096 127.838ZM235.002 127.383L234.995 128.383L235.005 128.383L235.002 127.383ZM239.668 128.486L239.23 129.384L239.23 129.384L239.668 128.486ZM244.349 137.996L243.355 137.89L243.354 137.897L243.353 137.904L244.349 137.996ZM242.123 143.438L241.327 142.833L241.327 142.833L242.123 143.438ZM236.176 146.867C233.971 147.952 231.849 148.552 229.807 148.692L229.943 150.687C232.285 150.527 234.659 149.843 237.059 148.661L236.176 146.867ZM229.807 148.692C227.78 148.831 225.95 148.475 224.295 147.641L223.395 149.427C225.395 150.434 227.586 150.849 229.943 150.687L229.807 148.692ZM224.306 147.646C222.712 146.817 221.413 145.491 220.419 143.612L218.651 144.546C219.808 146.735 221.381 148.379 223.383 149.421L224.306 147.646ZM219.976 144.976L228.141 140.958L227.258 139.163L219.093 143.182L219.976 144.976ZM226.852 140.591C227.641 141.851 228.667 142.742 229.957 143.116L230.514 141.196C229.81 140.991 229.145 140.485 228.547 139.53L226.852 140.591ZM229.98 143.123C231.243 143.457 232.536 143.253 233.81 142.626L232.927 140.831C231.989 141.293 231.193 141.375 230.491 141.189L229.98 143.123ZM233.81 142.626C235.073 142.004 236.048 141.174 236.583 140.081L234.787 139.201C234.507 139.773 233.937 140.334 232.927 140.831L233.81 142.626ZM236.595 140.056C237.125 138.894 237.062 137.684 236.487 136.516L234.693 137.399C235.03 138.085 235.031 138.664 234.775 139.226L236.595 140.056ZM236.487 136.516C235.99 135.505 235.194 134.799 234.128 134.47L233.538 136.381C234.049 136.539 234.425 136.854 234.693 137.399L236.487 136.516ZM234.155 134.479C233.255 134.173 232.275 134.061 231.229 134.121L231.343 136.117C232.176 136.07 232.893 136.162 233.511 136.372L234.155 134.479ZM231.243 134.12C230.271 134.162 228.963 134.326 227.337 134.601L227.671 136.573C229.268 136.302 230.481 136.154 231.329 136.118L231.243 134.12ZM227.347 134.6C225.033 134.968 223.119 135.149 221.594 135.154L221.6 137.154C223.265 137.149 225.289 136.952 227.661 136.575L227.347 134.6ZM221.594 135.154C220.167 135.158 218.759 134.818 217.358 134.113L216.459 135.9C218.119 136.735 219.836 137.159 221.6 137.154L221.594 135.154ZM217.358 134.113C216.071 133.466 214.955 132.283 214.052 130.449L212.258 131.332C213.298 133.446 214.685 135.007 216.459 135.9L217.358 134.113ZM214.052 130.449C212.732 127.766 212.696 125.282 213.861 122.898L212.064 122.02C210.6 125.016 210.693 128.153 212.258 131.332L214.052 130.449ZM213.865 122.89C215.044 120.421 217.205 118.365 220.467 116.76L219.583 114.965C216.026 116.716 213.479 119.058 212.06 122.028L213.865 122.89ZM220.467 116.76C223.792 115.123 226.769 114.653 229.442 115.224L229.859 113.268C226.636 112.579 223.197 113.187 219.583 114.965L220.467 116.76ZM229.45 115.225C232.066 115.76 234.105 117.3 235.586 119.963L237.334 118.99C235.602 115.878 233.101 113.931 229.851 113.266L229.45 115.225ZM236.019 118.579L227.719 122.664L228.602 124.458L236.902 120.374L236.019 118.579ZM229.031 123.067C228.355 121.876 227.377 121.066 226.1 120.762L225.638 122.708C226.296 122.864 226.847 123.271 227.291 124.054L229.031 123.067ZM226.125 120.769C224.868 120.436 223.591 120.627 222.339 121.244L223.222 123.038C224.124 122.594 224.905 122.515 225.614 122.702L226.125 120.769ZM222.339 121.244C221.241 121.784 220.415 122.57 219.986 123.633L221.84 124.382C222.047 123.868 222.466 123.41 223.222 123.038L222.339 121.244ZM219.997 123.606C219.517 124.699 219.65 125.857 220.201 126.977L221.996 126.094C221.634 125.36 221.643 124.832 221.829 124.409L219.997 123.606ZM220.201 126.977C220.875 128.345 222.077 129.082 223.626 129.203L223.783 127.21C222.857 127.137 222.323 126.759 221.996 126.094L220.201 126.977ZM223.626 129.203C224.976 129.31 226.863 129.173 229.239 128.827L228.952 126.848C226.613 127.188 224.905 127.298 223.783 127.21L223.626 129.203ZM229.226 128.829C231.574 128.519 233.493 128.374 234.995 128.383L235.008 126.383C233.38 126.373 231.361 126.53 228.965 126.846L229.226 128.829ZM235.005 128.383C236.438 128.379 237.843 128.707 239.23 129.384L240.107 127.587C238.462 126.784 236.756 126.378 234.999 126.383L235.005 128.383ZM239.23 129.384C240.502 130.005 241.582 131.129 242.436 132.863L244.23 131.98C243.23 129.947 241.867 128.446 240.107 127.587L239.23 129.384ZM242.436 132.863C243.239 134.494 243.54 136.163 243.355 137.89L245.343 138.103C245.57 135.986 245.194 133.938 244.23 131.98L242.436 132.863ZM243.353 137.904C243.197 139.602 242.537 141.242 241.327 142.833L242.92 144.043C244.326 142.193 245.15 140.205 245.345 138.088L243.353 137.904ZM241.327 142.833C240.132 144.407 238.43 145.758 236.176 146.867L237.059 148.661C239.531 147.445 241.5 145.912 242.92 144.043L241.327 142.833Z" fill="#2A5D18" mask="url(#path-7-outside-4_18_139)"/>
<mask id="path-9-outside-5_18_139" maskUnits="userSpaceOnUse" x="173.957" y="123.335" width="38.6407" height="44.7549" fill="black">
<rect fill="white" x="173.957" y="123.335" width="38.6407" height="44.7549"/>
<path d="M186.528 137.648L189.753 143.973L199.954 138.773L202.952 144.653L192.751 149.853L196.248 156.713L207.785 150.832L210.896 156.934L191.742 166.699L175.8 135.429L194.955 125.664L198.066 131.766L186.528 137.648Z"/>
</mask>
<path d="M186.528 137.648L189.753 143.973L199.954 138.773L202.952 144.653L192.751 149.853L196.248 156.713L207.785 150.832L210.896 156.934L191.742 166.699L175.8 135.429L194.955 125.664L198.066 131.766L186.528 137.648Z" fill="#2A5D18"/>
<path d="M186.528 137.648L186.074 136.757L185.183 137.211L185.638 138.102L186.528 137.648ZM189.753 143.973L188.862 144.428L189.316 145.319L190.207 144.864L189.753 143.973ZM199.954 138.773L200.845 138.319L200.391 137.428L199.5 137.882L199.954 138.773ZM202.952 144.653L203.406 145.544L204.297 145.09L203.843 144.199L202.952 144.653ZM192.751 149.853L192.297 148.963L191.406 149.417L191.86 150.308L192.751 149.853ZM196.248 156.713L195.357 157.168L195.811 158.059L196.702 157.604L196.248 156.713ZM207.785 150.832L208.676 150.378L208.222 149.487L207.331 149.941L207.785 150.832ZM210.896 156.934L211.351 157.825L212.241 157.371L211.787 156.48L210.896 156.934ZM191.742 166.699L190.851 167.154L191.305 168.045L192.196 167.59L191.742 166.699ZM175.8 135.429L175.346 134.538L174.455 134.992L174.909 135.883L175.8 135.429ZM194.955 125.664L195.845 125.209L195.391 124.319L194.5 124.773L194.955 125.664ZM198.066 131.766L198.52 132.657L199.411 132.203L198.957 131.312L198.066 131.766ZM185.638 138.102L188.862 144.428L190.644 143.519L187.419 137.194L185.638 138.102ZM190.207 144.864L200.408 139.664L199.5 137.882L189.299 143.083L190.207 144.864ZM199.063 139.227L202.061 145.107L203.843 144.199L200.845 138.319L199.063 139.227ZM202.497 143.762L192.297 148.963L193.205 150.744L203.406 145.544L202.497 143.762ZM191.86 150.308L195.357 157.168L197.139 156.259L193.642 149.399L191.86 150.308ZM196.702 157.604L208.239 151.723L207.331 149.941L195.794 155.823L196.702 157.604ZM206.894 151.286L210.005 157.389L211.787 156.48L208.676 150.378L206.894 151.286ZM210.442 156.044L191.288 165.809L192.196 167.59L211.351 157.825L210.442 156.044ZM192.633 166.245L176.691 134.974L174.909 135.883L190.851 167.154L192.633 166.245ZM176.254 136.319L195.409 126.555L194.5 124.773L175.346 134.538L176.254 136.319ZM194.064 126.118L197.175 132.221L198.957 131.312L195.845 125.209L194.064 126.118ZM197.612 130.875L186.074 136.757L186.983 138.539L198.52 132.657L197.612 130.875Z" fill="#2A5D18" mask="url(#path-9-outside-5_18_139)"/>
<mask id="path-11-outside-6_18_139" maskUnits="userSpaceOnUse" x="136.385" y="136.536" width="41.0967" height="45.6335" fill="black">
<rect fill="white" x="136.385" y="136.536" width="41.0967" height="45.6335"/>
<path d="M165.747 175.433L154.759 165.034L152.807 165.658L156.84 178.28L148.696 180.882L138.011 147.448L151.68 143.08C154.315 142.238 156.701 141.983 158.837 142.315C161.004 142.637 162.807 143.46 164.245 144.786C165.674 146.079 166.702 147.71 167.331 149.678C168.042 151.901 168.041 154.088 167.329 156.241C166.649 158.383 165.203 160.209 162.991 161.721L174.938 172.496L165.747 175.433ZM150.965 159.896L156.013 158.282C157.506 157.805 158.5 157.085 158.997 156.121C159.526 155.147 159.577 153.994 159.151 152.66C158.745 151.39 158.044 150.512 157.049 150.025C156.085 149.528 154.857 149.518 153.365 149.995L148.316 151.609L150.965 159.896Z"/>
</mask>
<path d="M165.747 175.433L154.759 165.034L152.807 165.658L156.84 178.28L148.696 180.882L138.011 147.448L151.68 143.08C154.315 142.238 156.701 141.983 158.837 142.315C161.004 142.637 162.807 143.46 164.245 144.786C165.674 146.079 166.702 147.71 167.331 149.678C168.042 151.901 168.041 154.088 167.329 156.241C166.649 158.383 165.203 160.209 162.991 161.721L174.938 172.496L165.747 175.433ZM150.965 159.896L156.013 158.282C157.506 157.805 158.5 157.085 158.997 156.121C159.526 155.147 159.577 153.994 159.151 152.66C158.745 151.39 158.044 150.512 157.049 150.025C156.085 149.528 154.857 149.518 153.365 149.995L148.316 151.609L150.965 159.896Z" fill="#2A5D18"/>
<path d="M165.747 175.433L165.059 176.159L165.488 176.566L166.051 176.386L165.747 175.433ZM154.759 165.034L155.447 164.308L155.018 163.902L154.455 164.082L154.759 165.034ZM152.807 165.658L152.502 164.706L151.55 165.01L151.854 165.963L152.807 165.658ZM156.84 178.28L157.145 179.232L158.097 178.928L157.793 177.975L156.84 178.28ZM148.696 180.882L147.744 181.187L148.048 182.139L149.001 181.835L148.696 180.882ZM138.011 147.448L137.706 146.496L136.754 146.8L137.058 147.753L138.011 147.448ZM158.837 142.315L158.683 143.303L158.69 143.304L158.837 142.315ZM164.245 144.786L163.568 145.521L163.574 145.527L164.245 144.786ZM167.329 156.241L166.379 155.926L166.376 155.938L167.329 156.241ZM162.991 161.721L162.427 160.896L161.378 161.613L162.322 162.464L162.991 161.721ZM174.938 172.496L175.243 173.448L176.9 172.918L175.608 171.753L174.938 172.496ZM150.965 159.896L150.012 160.2L150.317 161.153L151.269 160.848L150.965 159.896ZM158.997 156.121L158.118 155.644L158.113 155.654L158.108 155.663L158.997 156.121ZM157.049 150.025L156.591 150.914L156.6 150.919L156.61 150.923L157.049 150.025ZM148.316 151.609L148.012 150.656L147.06 150.96L147.364 151.913L148.316 151.609ZM166.434 174.707L155.447 164.308L154.072 165.761L165.059 176.159L166.434 174.707ZM154.455 164.082L152.502 164.706L153.111 166.611L155.064 165.987L154.455 164.082ZM151.854 165.963L155.888 178.584L157.793 177.975L153.759 165.354L151.854 165.963ZM156.536 177.327L148.392 179.93L149.001 181.835L157.145 179.232L156.536 177.327ZM149.649 180.578L138.963 147.144L137.058 147.753L147.744 181.187L149.649 180.578ZM138.315 148.401L151.984 144.032L151.375 142.127L137.706 146.496L138.315 148.401ZM151.984 144.032C154.512 143.225 156.737 143 158.683 143.303L158.99 141.327C156.664 140.965 154.118 141.251 151.375 142.127L151.984 144.032ZM158.69 143.304C160.684 143.6 162.294 144.348 163.568 145.521L164.923 144.05C163.32 142.573 161.325 141.674 158.984 141.326L158.69 143.304ZM163.574 145.527C164.862 146.693 165.799 148.169 166.379 149.983L168.284 149.374C167.605 147.25 166.485 145.464 164.917 144.044L163.574 145.527ZM166.379 149.983C167.027 152.01 167.023 153.981 166.38 155.926L168.278 156.555C169.059 154.196 169.057 151.791 168.284 149.374L166.379 149.983ZM166.376 155.938C165.776 157.828 164.491 159.485 162.427 160.896L163.556 162.547C165.915 160.934 167.522 158.937 168.282 156.543L166.376 155.938ZM162.322 162.464L174.269 173.238L175.608 171.753L163.661 160.978L162.322 162.464ZM174.634 171.543L165.442 174.481L166.051 176.386L175.243 173.448L174.634 171.543ZM151.269 160.848L156.318 159.235L155.709 157.33L150.661 158.943L151.269 160.848ZM156.318 159.235C157.95 158.713 159.222 157.867 159.886 156.58L158.108 155.663C157.778 156.303 157.061 156.897 155.709 157.33L156.318 159.235ZM159.876 156.598C160.567 155.325 160.589 153.876 160.103 152.356L158.198 152.965C158.565 154.111 158.485 154.969 158.118 155.644L159.876 156.598ZM160.103 152.356C159.633 150.883 158.777 149.757 157.488 149.127L156.61 150.923C157.311 151.266 157.857 151.897 158.198 152.965L160.103 152.356ZM157.507 149.136C156.22 148.473 154.693 148.521 153.06 149.043L153.669 150.948C155.022 150.515 155.95 150.584 156.591 150.914L157.507 149.136ZM153.06 149.043L148.012 150.656L148.621 152.561L153.669 150.948L153.06 149.043ZM147.364 151.913L150.012 160.2L151.917 159.591L149.269 151.304L147.364 151.913Z" fill="#2A5D18" mask="url(#path-11-outside-6_18_139)"/>
<mask id="path-13-outside-7_18_139" maskUnits="userSpaceOnUse" x="210.493" y="42.8566" width="50.8076" height="50.9725" fill="black">
<rect fill="white" x="210.493" y="42.8566" width="50.8076" height="50.9725"/>
<path d="M234.82 92.0724L228.6 86.2055L233.054 60.6443L218.198 76.3929L211.979 70.526L236.064 44.9935L242.284 50.8604L237.761 76.4944L252.686 60.673L258.905 66.5399L234.82 92.0724Z"/>
</mask>
<path d="M234.82 92.0724L228.6 86.2055L233.054 60.6443L218.198 76.3929L211.979 70.526L236.064 44.9935L242.284 50.8604L237.761 76.4944L252.686 60.673L258.905 66.5399L234.82 92.0724Z" fill="#2A5D18"/>
<path d="M234.82 92.0724L234.134 92.7998L234.861 93.486L235.547 92.7586L234.82 92.0724ZM228.6 86.2055L227.615 86.0338L227.523 86.5638L227.914 86.9329L228.6 86.2055ZM233.054 60.6443L234.04 60.8159L234.611 57.5369L232.327 59.9581L233.054 60.6443ZM218.198 76.3929L217.512 77.1204L218.24 77.8066L218.926 77.0791L218.198 76.3929ZM211.979 70.526L211.251 69.8398L210.565 70.5672L211.293 71.2534L211.979 70.526ZM236.064 44.9935L236.75 44.2661L236.023 43.5799L235.337 44.3073L236.064 44.9935ZM242.284 50.8604L243.268 51.0342L243.362 50.5031L242.97 50.133L242.284 50.8604ZM237.761 76.4944L236.776 76.3206L236.196 79.6111L238.489 77.1806L237.761 76.4944ZM252.686 60.673L253.372 59.9455L252.645 59.2594L251.958 59.9868L252.686 60.673ZM258.905 66.5399L259.633 67.2261L260.319 66.4987L259.591 65.8125L258.905 66.5399ZM235.506 91.345L229.287 85.478L227.914 86.9329L234.134 92.7998L235.506 91.345ZM229.586 86.3771L234.04 60.8159L232.069 60.4726L227.615 86.0338L229.586 86.3771ZM232.327 59.9581L217.471 75.7068L218.926 77.0791L233.782 61.3305L232.327 59.9581ZM218.885 75.6655L212.665 69.7986L211.293 71.2534L217.512 77.1204L218.885 75.6655ZM212.706 71.2122L236.792 45.6797L235.337 44.3073L211.251 69.8398L212.706 71.2122ZM235.378 45.7209L241.597 51.5879L242.97 50.133L236.75 44.2661L235.378 45.7209ZM241.299 50.6867L236.776 76.3206L238.746 76.6681L243.268 51.0342L241.299 50.6867ZM238.489 77.1806L253.413 61.3592L251.958 59.9868L237.034 75.8082L238.489 77.1806ZM252 61.4004L258.219 67.2673L259.591 65.8125L253.372 59.9455L252 61.4004ZM258.178 65.8537L234.093 91.3862L235.547 92.7586L259.633 67.2261L258.178 65.8537Z" fill="#2A5D18" mask="url(#path-13-outside-7_18_139)"/>
<mask id="path-15-outside-8_18_139" maskUnits="userSpaceOnUse" x="171.323" y="20.5856" width="48.7888" height="48.7888" fill="black">
<rect fill="white" x="171.323" y="20.5856" width="48.7888" height="48.7888"/>
<path d="M190.63 62.0908C187.477 61.1149 184.807 59.4855 182.617 57.2026C180.459 54.9295 179.005 52.2459 178.253 49.1518C177.542 46.0358 177.695 42.8378 178.71 39.5581C179.726 36.2783 181.402 33.5694 183.738 31.4315C186.107 29.3034 188.823 27.9112 191.888 27.2547C194.984 26.6081 198.109 26.7728 201.261 27.7487C204.414 28.7245 207.069 30.349 209.226 32.6221C211.416 34.905 212.855 37.5836 213.543 40.658C214.263 43.7423 214.115 46.9243 213.1 50.204C212.085 53.4838 210.404 56.2086 208.057 58.3784C205.72 60.5163 203.02 61.9135 199.955 62.5699C196.891 63.2264 193.782 63.0666 190.63 62.0908ZM192.937 54.6396C195.611 55.4677 198.021 55.2365 200.165 53.9462C202.341 52.6657 203.882 50.5608 204.789 47.6313C205.706 44.6699 205.623 42.0622 204.542 39.8081C203.501 37.5321 201.644 35.9801 198.969 35.152C196.263 34.3142 193.826 34.5195 191.66 35.7681C189.526 37.0266 187.995 39.1524 187.069 42.1456C186.152 45.107 186.214 47.7257 187.254 50.0017C188.336 52.2558 190.23 53.8018 192.937 54.6396Z"/>
</mask>
<path d="M190.63 62.0908C187.477 61.1149 184.807 59.4855 182.617 57.2026C180.459 54.9295 179.005 52.2459 178.253 49.1518C177.542 46.0358 177.695 42.8378 178.71 39.5581C179.726 36.2783 181.402 33.5694 183.738 31.4315C186.107 29.3034 188.823 27.9112 191.888 27.2547C194.984 26.6081 198.109 26.7728 201.261 27.7487C204.414 28.7245 207.069 30.349 209.226 32.6221C211.416 34.905 212.855 37.5836 213.543 40.658C214.263 43.7423 214.115 46.9243 213.1 50.204C212.085 53.4838 210.404 56.2086 208.057 58.3784C205.72 60.5163 203.02 61.9135 199.955 62.5699C196.891 63.2264 193.782 63.0666 190.63 62.0908ZM192.937 54.6396C195.611 55.4677 198.021 55.2365 200.165 53.9462C202.341 52.6657 203.882 50.5608 204.789 47.6313C205.706 44.6699 205.623 42.0622 204.542 39.8081C203.501 37.5321 201.644 35.9801 198.969 35.152C196.263 34.3142 193.826 34.5195 191.66 35.7681C189.526 37.0266 187.995 39.1524 187.069 42.1456C186.152 45.107 186.214 47.7257 187.254 50.0017C188.336 52.2558 190.23 53.8018 192.937 54.6396Z" fill="#2A5D18"/>
<path d="M182.617 57.2026L181.892 57.891L181.895 57.8948L182.617 57.2026ZM178.253 49.1518L177.278 49.3741L177.279 49.381L177.281 49.388L178.253 49.1518ZM183.738 31.4315L183.07 30.6876L183.063 30.6937L183.738 31.4315ZM191.888 27.2547L191.684 26.2758L191.678 26.2769L191.888 27.2547ZM209.226 32.6221L208.501 33.3105L208.504 33.3143L209.226 32.6221ZM213.543 40.658L212.567 40.8765L212.569 40.8854L213.543 40.658ZM208.057 58.3784L208.732 59.1162L208.736 59.1126L208.057 58.3784ZM199.955 62.5699L200.165 63.5477L200.165 63.5477L199.955 62.5699ZM200.165 53.9462L199.658 53.0843L199.649 53.0894L200.165 53.9462ZM204.542 39.8081L203.632 40.2238L203.636 40.2323L203.64 40.2408L204.542 39.8081ZM191.66 35.7681L191.161 34.9017L191.152 34.9067L191.66 35.7681ZM187.254 50.0017L186.344 50.4174L186.348 50.4259L186.352 50.4344L187.254 50.0017ZM190.926 61.1355C187.928 60.2075 185.406 58.6655 183.339 56.5104L181.895 57.8948C184.207 60.3055 187.027 62.0223 190.334 63.046L190.926 61.1355ZM183.342 56.5141C181.307 54.3698 179.936 51.8429 179.224 48.9157L177.281 49.388C178.073 52.6489 179.612 55.4892 181.892 57.891L183.342 56.5141ZM179.228 48.9296C178.559 45.9976 178.698 42.9785 179.665 39.8538L177.755 39.2623C176.692 42.6971 176.525 46.0739 177.278 49.3741L179.228 48.9296ZM179.665 39.8538C180.633 36.7289 182.218 34.1774 184.413 32.1693L183.063 30.6937C180.585 32.9615 178.818 35.8276 177.755 39.2623L179.665 39.8538ZM184.407 32.1754C186.647 30.1621 189.206 28.8518 192.097 28.2325L191.678 26.2769C188.44 26.9705 185.566 28.4448 183.07 30.6876L184.407 32.1754ZM192.092 28.2336C195.015 27.6232 197.968 27.776 200.965 28.7039L201.557 26.7934C198.25 25.7696 194.953 25.5931 191.684 26.2758L192.092 28.2336ZM200.965 28.7039C203.963 29.6319 206.468 31.1684 208.501 33.3105L209.951 31.9336C207.67 29.5296 204.864 27.8172 201.557 26.7934L200.965 28.7039ZM208.504 33.3143C210.568 35.466 211.919 37.981 212.567 40.8765L214.519 40.4396C213.79 37.1863 212.263 34.344 209.948 31.9299L208.504 33.3143ZM212.569 40.8854C213.245 43.7823 213.112 46.7835 212.145 49.9083L214.055 50.4998C215.119 47.0651 215.281 43.7022 214.517 40.4306L212.569 40.8854ZM212.145 49.9083C211.177 53.0331 209.586 55.6025 207.378 57.6441L208.736 59.1126C211.221 56.8146 212.992 53.9346 214.055 50.4998L212.145 49.9083ZM207.382 57.6406C205.175 59.6599 202.635 60.9733 199.746 61.5921L200.165 63.5477C203.405 62.8537 206.266 61.3727 208.732 59.1162L207.382 57.6406ZM199.746 61.5921C196.858 62.2107 193.923 62.0635 190.926 61.1355L190.334 63.046C193.641 64.0698 196.924 64.242 200.165 63.5477L199.746 61.5921ZM192.641 55.5949C195.552 56.496 198.262 56.2586 200.681 54.803L199.649 53.0894C197.78 54.2144 195.671 54.4393 193.232 53.6844L192.641 55.5949ZM200.672 54.8081C203.107 53.3754 204.781 51.0407 205.744 47.927L203.834 47.3355C202.984 50.0808 201.575 51.9561 199.658 53.0843L200.672 54.8081ZM205.744 47.927C206.717 44.7852 206.659 41.9082 205.443 39.3755L203.64 40.2408C204.588 42.2162 204.695 44.5546 203.834 47.3355L205.744 47.927ZM205.451 39.3925C204.278 36.8249 202.176 35.0979 199.265 34.1968L198.674 36.1073C201.112 36.8622 202.725 38.2393 203.632 40.2238L205.451 39.3925ZM199.265 34.1968C196.332 33.2887 193.601 33.495 191.161 34.9018L192.16 36.6345C194.051 35.5441 196.194 35.3396 198.674 36.1073L199.265 34.1968ZM191.152 34.9067C188.751 36.3224 187.094 38.6843 186.114 41.8499L188.024 42.4413C188.897 39.6206 190.3 37.7308 192.168 36.6295L191.152 34.9067ZM186.114 41.8499C185.142 44.9876 185.179 47.8679 186.344 50.4174L188.163 49.5861C187.248 47.5834 187.162 45.2264 188.024 42.4413L186.114 41.8499ZM186.352 50.4344C187.571 52.974 189.707 54.6868 192.641 55.5949L193.232 53.6844C190.752 52.9167 189.1 51.5376 188.155 49.569L186.352 50.4344Z" fill="#2A5D18" mask="url(#path-15-outside-8_18_139)"/>
<mask id="path-17-outside-9_18_139" maskUnits="userSpaceOnUse" x="87.8273" y="143.97" width="46.4007" height="46.4007" fill="black">
<rect fill="white" x="87.8273" y="143.97" width="46.4007" height="46.4007"/>
<path d="M115.019 184.569C111.794 185.271 108.667 185.167 105.638 184.257C102.641 183.34 100.054 181.719 97.8765 179.396C95.7248 177.033 94.284 174.174 93.554 170.819C92.8239 167.464 92.95 164.281 93.9323 161.27C94.9471 158.252 96.6269 155.703 98.9717 153.624C101.349 151.537 104.15 150.143 107.375 149.441C110.599 148.74 113.71 148.847 116.707 149.765C119.736 150.675 122.307 152.298 124.419 154.636C126.563 156.967 128.001 159.809 128.731 163.164C129.461 166.519 129.338 169.718 128.363 172.762C127.381 175.773 125.717 178.318 123.373 180.398C121.028 182.477 118.243 183.868 115.019 184.569ZM113.36 176.948C116.096 176.352 118.08 174.965 119.311 172.787C120.576 170.602 120.882 168.011 120.23 165.014C119.571 161.985 118.215 159.756 116.165 158.326C114.139 156.856 111.758 156.419 109.022 157.014C106.254 157.617 104.234 158.994 102.963 161.147C101.724 163.293 101.438 165.897 102.104 168.958C102.763 171.988 104.105 174.237 106.131 175.706C108.182 177.136 110.591 177.55 113.36 176.948Z"/>
</mask>
<path d="M115.019 184.569C111.794 185.271 108.667 185.167 105.638 184.257C102.641 183.34 100.054 181.719 97.8765 179.396C95.7248 177.033 94.284 174.174 93.554 170.819C92.8239 167.464 92.95 164.281 93.9323 161.27C94.9471 158.252 96.6269 155.703 98.9717 153.624C101.349 151.537 104.15 150.143 107.375 149.441C110.599 148.74 113.71 148.847 116.707 149.765C119.736 150.675 122.307 152.298 124.419 154.636C126.563 156.967 128.001 159.809 128.731 163.164C129.461 166.519 129.338 169.718 128.363 172.762C127.381 175.773 125.717 178.318 123.373 180.398C121.028 182.477 118.243 183.868 115.019 184.569ZM113.36 176.948C116.096 176.352 118.08 174.965 119.311 172.787C120.576 170.602 120.882 168.011 120.23 165.014C119.571 161.985 118.215 159.756 116.165 158.326C114.139 156.856 111.758 156.419 109.022 157.014C106.254 157.617 104.234 158.994 102.963 161.147C101.724 163.293 101.438 165.897 102.104 168.958C102.763 171.988 104.105 174.237 106.131 175.706C108.182 177.136 110.591 177.55 113.36 176.948Z" fill="#2A5D18"/>
<path d="M105.638 184.257L105.345 185.213L105.35 185.215L105.638 184.257ZM97.8765 179.396L97.1371 180.069L97.1419 180.074L97.1468 180.08L97.8765 179.396ZM93.9323 161.27L92.9844 160.951L92.9816 160.96L93.9323 161.27ZM98.9717 153.624L98.312 152.872L98.3081 152.876L98.9717 153.624ZM116.707 149.765L116.414 150.721L116.419 150.722L116.707 149.765ZM124.419 154.636L123.677 155.307L123.683 155.313L124.419 154.636ZM128.363 172.762L129.314 173.072L129.315 173.067L128.363 172.762ZM123.373 180.398L124.036 181.146L124.036 181.146L123.373 180.398ZM119.311 172.787L118.446 172.286L118.441 172.295L119.311 172.787ZM116.165 158.326L115.577 159.135L115.585 159.14L115.593 159.146L116.165 158.326ZM102.963 161.147L102.101 160.639L102.097 160.647L102.963 161.147ZM106.131 175.706L105.544 176.516L105.551 176.521L105.559 176.527L106.131 175.706ZM114.806 183.592C111.74 184.259 108.785 184.158 105.925 183.299L105.35 185.215C108.549 186.176 111.848 186.283 115.231 185.546L114.806 183.592ZM105.93 183.301C103.103 182.436 100.666 180.91 98.6062 178.712L97.1468 180.08C99.4414 182.529 102.178 184.244 105.345 185.213L105.93 183.301ZM98.6159 178.723C96.5914 176.499 95.2266 173.803 94.5311 170.606L92.5768 171.032C93.3413 174.545 94.8583 177.566 97.1371 180.069L98.6159 178.723ZM94.5311 170.606C93.8355 167.41 93.9604 164.408 94.883 161.58L92.9816 160.96C91.9397 164.154 91.8123 167.518 92.5768 171.032L94.5311 170.606ZM94.8801 161.589C95.8402 158.733 97.4232 156.334 99.6352 154.372L98.3081 152.876C95.8305 155.073 94.0539 157.771 92.9844 160.951L94.8801 161.589ZM99.6313 154.375C101.876 152.406 104.521 151.086 107.587 150.419L107.162 148.464C103.779 149.2 100.822 150.669 98.312 152.872L99.6313 154.375ZM107.587 150.419C110.653 149.751 113.59 149.857 116.414 150.721L116.999 148.808C113.83 147.838 110.545 147.728 107.162 148.464L107.587 150.419ZM116.419 150.722C119.274 151.58 121.688 153.105 123.677 155.306L125.161 153.966C122.926 151.492 120.198 149.769 116.994 148.807L116.419 150.722ZM123.683 155.313C125.697 157.502 127.058 160.181 127.754 163.377L129.708 162.952C128.943 159.438 127.43 156.431 125.155 153.959L123.683 155.313ZM127.754 163.377C128.449 166.573 128.328 169.593 127.411 172.457L129.315 173.067C130.348 169.844 130.472 166.465 129.708 162.952L127.754 163.377ZM127.412 172.452C126.485 175.296 124.919 177.689 122.709 179.649L124.036 181.146C126.515 178.947 128.277 176.25 129.314 173.072L127.412 172.452ZM122.709 179.649C120.499 181.609 117.872 182.925 114.806 183.592L115.231 185.546C118.614 184.81 121.556 183.345 124.036 181.146L122.709 179.649ZM113.573 177.925C116.55 177.277 118.793 175.737 120.182 173.279L118.441 172.295C117.367 174.194 115.642 175.428 113.147 175.971L113.573 177.925ZM120.177 173.288C121.592 170.843 121.9 167.987 121.207 164.802L119.253 165.227C119.864 168.035 119.56 170.361 118.446 172.286L120.177 173.288ZM121.207 164.802C120.508 161.588 119.041 159.112 116.736 157.505L115.593 159.146C117.39 160.399 118.634 162.382 119.253 165.227L121.207 164.802ZM116.752 157.516C114.467 155.858 111.787 155.389 108.81 156.037L109.235 157.991C111.73 157.449 113.811 157.854 115.577 159.135L116.752 157.516ZM108.81 156.037C105.809 156.69 103.534 158.213 102.102 160.639L103.824 161.656C104.934 159.776 106.698 158.543 109.235 157.991L108.81 156.037ZM102.097 160.647C100.703 163.061 100.422 165.933 101.127 169.171L103.081 168.746C102.453 165.86 102.745 163.525 103.829 161.647L102.097 160.647ZM101.127 169.171C101.825 172.38 103.275 174.87 105.544 176.516L106.718 174.897C104.936 173.604 103.701 171.595 103.081 168.746L101.127 169.171ZM105.559 176.527C107.87 178.138 110.572 178.578 113.573 177.925L113.147 175.971C110.611 176.523 108.494 176.135 106.703 174.886L105.559 176.527Z" fill="#2A5D18" mask="url(#path-17-outside-9_18_139)"/>
<mask id="path-19-outside-10_18_139" maskUnits="userSpaceOnUse" x="142.875" y="17.9997" width="32.0486" height="40.8756" fill="black">
<rect fill="white" x="142.875" y="17.9997" width="32.0486" height="40.8756"/>
<path d="M154.894 49.0583L169.901 50.7359L169.123 57.6926L144.476 54.9372L145.199 48.4775L162.506 28.6778L147.598 27.0112L148.376 20.0546L173.023 22.8099L172.3 29.2697L154.894 49.0583Z"/>
</mask>
<path d="M154.894 49.0583L169.901 50.7359L169.123 57.6926L144.476 54.9372L145.199 48.4775L162.506 28.6778L147.598 27.0112L148.376 20.0546L173.023 22.8099L172.3 29.2697L154.894 49.0583Z" fill="#2A5D18"/>
<path d="M154.894 49.0583L154.143 48.3978L152.876 49.8389L154.783 50.0521L154.894 49.0583ZM169.901 50.7359L170.894 50.8471L171.005 49.8532L170.012 49.7421L169.901 50.7359ZM169.123 57.6926L169.012 58.6864L170.006 58.7975L170.117 57.8037L169.123 57.6926ZM144.476 54.9372L143.483 54.8261L143.371 55.82L144.365 55.9311L144.476 54.9372ZM145.199 48.4775L144.446 47.8194L144.24 48.0552L144.205 48.3664L145.199 48.4775ZM162.506 28.6778L163.258 29.3359L164.517 27.8964L162.617 27.684L162.506 28.6778ZM147.598 27.0112L146.605 26.9001L146.493 27.8939L147.487 28.005L147.598 27.0112ZM148.376 20.0546L148.487 19.0607L147.493 18.9496L147.382 19.9435L148.376 20.0546ZM173.023 22.8099L174.016 22.921L174.127 21.9272L173.134 21.8161L173.023 22.8099ZM172.3 29.2697L173.051 29.9301L173.259 29.6937L173.294 29.3808L172.3 29.2697ZM154.783 50.0521L169.789 51.7298L170.012 49.7421L155.005 48.0645L154.783 50.0521ZM168.907 50.6248L168.129 57.5815L170.117 57.8037L170.894 50.8471L168.907 50.6248ZM169.234 56.6988L144.587 53.9434L144.365 55.9311L169.012 58.6864L169.234 56.6988ZM145.47 55.0483L146.192 48.5886L144.205 48.3664L143.483 54.8261L145.47 55.0483ZM145.951 49.1356L163.258 29.3359L161.753 28.0196L144.446 47.8194L145.951 49.1356ZM162.617 27.684L147.709 26.0174L147.487 28.005L162.394 29.6716L162.617 27.684ZM148.592 27.1223L149.37 20.1657L147.382 19.9435L146.605 26.9001L148.592 27.1223ZM148.265 21.0484L172.911 23.8037L173.134 21.8161L148.487 19.0607L148.265 21.0484ZM172.029 22.6988L171.307 29.1586L173.294 29.3808L174.016 22.921L172.029 22.6988ZM171.55 28.6092L154.143 48.3978L155.645 49.7188L173.051 29.9301L171.55 28.6092Z" fill="#2A5D18" mask="url(#path-19-outside-10_18_139)"/>
<mask id="path-21-outside-11_18_139" maskUnits="userSpaceOnUse" x="91.7977" y="20.485" width="47.6637" height="46.9639" fill="black">
<rect fill="white" x="91.7977" y="20.485" width="47.6637" height="46.9639"/>
<path d="M124.972 53.6401L112.338 57.1059L111.953 63.6405L103.322 66.0083L106.284 28.7991L115.831 26.1799L137.365 56.6693L128.637 59.0636L124.972 53.6401ZM121.104 47.8573L113.509 36.616L112.762 50.1458L121.104 47.8573Z"/>
</mask>
<path d="M124.972 53.6401L112.338 57.1059L111.953 63.6405L103.322 66.0083L106.284 28.7991L115.831 26.1799L137.365 56.6693L128.637 59.0636L124.972 53.6401ZM121.104 47.8573L113.509 36.616L112.762 50.1458L121.104 47.8573Z" fill="#2A5D18"/>
<path d="M124.972 53.6401L125.8 53.0802L125.399 52.486L124.707 52.6757L124.972 53.6401ZM112.338 57.1059L112.074 56.1415L111.382 56.3312L111.34 57.0471L112.338 57.1059ZM111.953 63.6405L112.218 64.6049L112.91 64.4152L112.952 63.6993L111.953 63.6405ZM103.322 66.0083L102.325 65.929L102.212 67.3498L103.587 66.9727L103.322 66.0083ZM106.284 28.7991L106.019 27.8347L105.343 28.0203L105.287 28.7197L106.284 28.7991ZM115.831 26.1799L116.648 25.603L116.243 25.0299L115.566 25.2155L115.831 26.1799ZM137.365 56.6693L137.629 57.6337L139.004 57.2566L138.181 56.0925L137.365 56.6693ZM128.637 59.0636L127.808 59.6236L128.21 60.2177L128.902 60.028L128.637 59.0636ZM121.104 47.8573L121.368 48.8217L122.713 48.4528L121.932 47.2975L121.104 47.8573ZM113.509 36.616L114.338 36.0562L112.675 33.5943L112.511 36.5609L113.509 36.616ZM112.762 50.1458L111.764 50.0906L111.687 51.4776L113.027 51.1101L112.762 50.1458ZM124.707 52.6757L112.074 56.1415L112.603 58.0702L125.236 54.6045L124.707 52.6757ZM111.34 57.0471L110.955 63.5817L112.952 63.6993L113.337 57.1647L111.34 57.0471ZM111.689 62.6762L103.058 65.044L103.587 66.9727L112.218 64.6049L111.689 62.6762ZM104.319 66.0877L107.281 28.8784L105.287 28.7197L102.325 65.929L104.319 66.0877ZM106.548 29.7634L116.096 27.1443L115.566 25.2155L106.019 27.8347L106.548 29.7634ZM115.014 26.7568L136.548 57.2462L138.181 56.0925L116.648 25.603L115.014 26.7568ZM137.1 55.705L128.372 58.0993L128.902 60.028L137.629 57.6337L137.1 55.705ZM129.466 58.5037L125.8 53.0802L124.143 54.2001L127.808 59.6236L129.466 58.5037ZM121.932 47.2975L114.338 36.0562L112.681 37.1758L120.275 48.4171L121.932 47.2975ZM112.511 36.5609L111.764 50.0906L113.761 50.2009L114.508 36.6711L112.511 36.5609ZM113.027 51.1101L121.368 48.8217L120.839 46.8929L112.498 49.1814L113.027 51.1101Z" fill="#2A5D18" mask="url(#path-21-outside-11_18_139)"/>
<mask id="path-23-outside-12_18_139" maskUnits="userSpaceOnUse" x="42.595" y="40.0487" width="56.639" height="56.3732" fill="black">
<rect fill="white" x="42.595" y="40.0487" width="56.639" height="56.3732"/>
<path d="M74.0844 42.2279L97.7104 68.1859L91.3873 73.941L77.2184 58.3736L85.5818 79.2249L80.479 83.8693L60.434 73.5824L74.6365 89.1869L68.3134 94.9419L44.6874 68.9839L52.1568 62.1855L75.7978 73.5264L66.6519 48.9926L74.0844 42.2279Z"/>
</mask>
<path d="M74.0844 42.2279L97.7104 68.1859L91.3873 73.941L77.2184 58.3736L85.5818 79.2249L80.479 83.8693L60.434 73.5824L74.6365 89.1869L68.3134 94.9419L44.6874 68.9839L52.1568 62.1855L75.7978 73.5264L66.6519 48.9926L74.0844 42.2279Z" fill="#2A5D18"/>
<path d="M74.0844 42.2279L74.8239 41.5548L74.1508 40.8152L73.4113 41.4883L74.0844 42.2279ZM97.7104 68.1859L98.3835 68.9255L99.123 68.2524L98.4499 67.5128L97.7104 68.1859ZM91.3873 73.941L90.6477 74.6141L91.3208 75.3537L92.0604 74.6806L91.3873 73.941ZM77.2184 58.3736L77.9579 57.7005L76.2903 58.7458L77.2184 58.3736ZM85.5818 79.2249L86.2549 79.9644L86.7684 79.4971L86.51 78.8526L85.5818 79.2249ZM80.479 83.8693L80.0224 84.759L80.6393 85.0756L81.1521 84.6089L80.479 83.8693ZM60.434 73.5824L60.8906 72.6928L59.6945 74.2555L60.434 73.5824ZM74.6365 89.1869L75.3097 89.9264L76.0492 89.2533L75.3761 88.5138L74.6365 89.1869ZM68.3134 94.9419L67.5739 95.615L68.247 96.3546L68.9865 95.6815L68.3134 94.9419ZM44.6874 68.9839L44.0143 68.2443L43.2748 68.9174L43.9479 69.657L44.6874 68.9839ZM52.1568 62.1855L52.5893 61.2839L51.9819 60.9925L51.4837 61.4459L52.1568 62.1855ZM75.7978 73.5264L75.3653 74.428L77.601 75.5005L76.7348 73.177L75.7978 73.5264ZM66.6519 48.9926L65.9788 48.2531L65.4787 48.7082L65.7149 49.3419L66.6519 48.9926ZM73.3448 42.901L96.9708 68.8591L98.4499 67.5128L74.8239 41.5548L73.3448 42.901ZM97.0373 67.4464L90.7142 73.2015L92.0604 74.6806L98.3835 68.9255L97.0373 67.4464ZM92.1268 73.2679L77.9579 57.7005L76.4788 59.0467L90.6477 74.6141L92.1268 73.2679ZM76.2903 58.7458L84.6537 79.5972L86.51 78.8526L78.1465 58.0013L76.2903 58.7458ZM84.9087 78.4853L79.8059 83.1298L81.1521 84.6089L86.2549 79.9644L84.9087 78.4853ZM80.9355 82.9796L60.8906 72.6928L59.9774 74.4721L80.0224 84.759L80.9355 82.9796ZM59.6945 74.2555L73.897 89.86L75.3761 88.5138L61.1736 72.9093L59.6945 74.2555ZM73.9634 88.4473L67.6403 94.2024L68.9865 95.6815L75.3097 89.9264L73.9634 88.4473ZM69.053 94.2688L45.4269 68.3107L43.9479 69.657L67.5739 95.615L69.053 94.2688ZM45.3605 69.7234L52.8299 62.925L51.4837 61.4459L44.0143 68.2443L45.3605 69.7234ZM51.7243 63.0871L75.3653 74.428L76.2303 72.6247L52.5893 61.2839L51.7243 63.0871ZM76.7348 73.177L67.5889 48.6433L65.7149 49.3419L74.8608 73.8757L76.7348 73.177ZM67.325 49.7321L74.7575 42.9674L73.4113 41.4883L65.9788 48.2531L67.325 49.7321Z" fill="#2A5D18" mask="url(#path-23-outside-12_18_139)"/>
<path d="M12 186.029C12 186.029 36.8469 139.044 90.5 116.529C146.5 93.0293 204 100.529 204 100.529" stroke="#2A5D18" stroke-width="5" stroke-linecap="round"/>
<path d="M69.5 97.8896C74.4287 91.0475 77.6745 87.466 84 81.8897C94.2489 72.8547 99 67.3902 118 61.8909C137 56.3915 143 58.8909 143 58.8909" stroke="#F5F5F5" stroke-width="5"/>
</svg>